<svg width="105" height="21" viewBox="0 0 105 21" fill="none" xmlns="http://www.w3.org/2000/svg">
<path d="M94.1368 14.2505C92.8327 13.4815 91.4864 12.7548 90.1541 12.0702L91.0717 10.2842C92.4602 10.9967 93.8205 11.7374 95.1526 12.5344L94.1367 14.2786L94.1368 14.2505ZM86.0585 10.0869C84.6698 9.45858 83.2669 8.87248 81.8499 8.32858L82.5993 6.45868C84.0443 7.03068 85.4752 7.61667 86.892 8.24487L86.0726 10.0728L86.0585 10.0869ZM77.5706 6.78108C76.1253 6.29338 74.6799 5.86188 73.2064 5.45858L73.7592 3.53307C75.2468 3.95037 76.7343 4.39577 78.2076 4.88347L77.5706 6.78108ZM68.7855 4.33278C67.2977 3.99978 65.8098 3.69477 64.3078 3.43187L64.6642 1.45078C66.1943 1.71348 67.7102 2.01838 69.2401 2.36538L68.7855 4.33278ZM59.8014 2.75578C58.2851 2.56318 56.7828 2.41277 55.2523 2.29047L55.4262 0.295674C56.9848 0.417974 58.5152 0.568376 60.0595 0.760876L59.8014 2.75578ZM50.7026 2.04977C49.186 1.99767 47.6552 1.98778 46.1384 2.01988L46.1297 0.0115744C47.6886 -0.00662559 49.2335 -0.0107244 50.7922 0.0552756L50.7166 2.06387L50.7026 2.04977ZM41.5736 2.18657C40.0565 2.27487 38.5394 2.41938 37.0221 2.59198L36.8028 0.598275C38.3481 0.425675 39.9073 0.295073 41.4524 0.206673L41.5735 2.21468L41.5736 2.18657ZM32.4983 3.19397C30.9949 3.43667 29.4915 3.70757 28.002 4.02047L27.614 2.05537C29.1316 1.74237 30.6772 1.45737 32.2087 1.21447L32.5123 3.20797L32.4983 3.19397ZM23.5472 5.05767C22.0715 5.44077 20.6098 5.86607 19.148 6.31937L18.5632 4.41087C20.0391 3.94347 21.557 3.51807 23.0468 3.12087L23.5472 5.05767ZM14.8184 7.79157C13.3986 8.31497 11.9645 8.88058 10.5585 9.47418L9.77701 7.62248C11.2112 7.00068 12.6592 6.44908 14.1072 5.89748L14.7903 7.79157H14.8184ZM6.41001 11.3813C5.04601 12.045 3.69601 12.7508 2.36001 13.4987L1.39601 11.7458C2.76001 10.9978 4.13801 10.2638 5.54401 9.58587L6.41001 11.3813Z" fill="#919191"/>
<path d="M11.6205 16.8163L12.1453 14.8908L2.61599 12.3181L5.91299 2.96994L4.01899 2.31494L-1.52588e-05 13.7015L11.6205 16.8163Z" fill="#919191"/>
<path d="M95.74 12.5934C97.2702 11.0632 99.7511 11.0632 101.281 12.5934C102.811 14.1236 102.811 16.6045 101.281 18.1347C99.7511 19.6648 97.2702 19.6648 95.74 18.1347C94.2099 16.6045 94.2098 14.1236 95.74 12.5934Z" stroke="#919191" stroke-width="2"/>
</svg>
