<svg width="90" height="90" viewBox="0 0 90 90" fill="none" xmlns="http://www.w3.org/2000/svg">
<g clip-path="url(#clip0_1_341)">
<path d="M14.3843 47.0244L29.9524 7.31004C30.5637 5.7504 32.7708 5.7504 33.3821 7.31004L48.9502 47.0244L51.6018 45.9848L35.8402 5.77669C34.3523 1.98134 28.9816 1.98134 27.4938 5.77669L11.7322 45.9848L14.3843 47.0244Z" fill="url(#paint0_linear_1_341)"/>
<path d="M31.6673 82.2789C14.1779 82.2789 0 68.101 0 50.6116C0 33.1223 14.1779 18.9443 31.6673 18.9443C49.1567 18.9443 63.3346 33.1223 63.3346 50.6116C63.3346 68.101 49.1567 82.2789 31.6673 82.2789Z" fill="url(#paint1_linear_1_341)"/>
<path d="M63.3346 50.6114C63.3346 68.1007 49.1568 82.2787 31.6673 82.2787C14.178 82.2787 0 68.1007 0 50.6114C0 46.8236 0.667233 43.1924 1.88682 39.8257H61.4478C62.6674 43.1924 63.3346 46.8236 63.3346 50.6114Z" fill="url(#paint2_linear_1_341)"/>
<path d="M54.0595 73.004C41.6928 85.3707 21.642 85.3709 9.27516 73.004C-3.09172 60.6371 -3.09155 40.5865 9.27516 28.2197C11.9535 25.5414 14.993 23.4454 18.2362 21.9272L60.3519 64.043C58.8338 67.286 56.7378 70.3255 54.0595 73.004Z" fill="url(#paint3_linear_1_341)"/>
<path d="M31.6673 75.669C17.8285 75.669 6.6099 64.4504 6.6099 50.6116C6.6099 36.7728 17.8285 25.5542 31.6673 25.5542C45.5061 25.5542 56.7247 36.7728 56.7247 50.6116C56.7247 64.4504 45.5061 75.669 31.6673 75.669Z" fill="url(#paint4_linear_1_341)"/>
<path d="M31.6672 32.5054C41.6666 32.5054 49.7729 40.6116 49.7729 50.6111C49.7729 60.6124 41.6668 68.7185 31.6672 68.7185C21.6677 68.7185 13.5615 60.6124 13.5615 50.6111C13.5615 40.6117 21.6679 32.5054 31.6672 32.5054ZM31.6672 60.9314C37.3657 60.9314 41.9857 56.3114 41.9857 50.6111C41.9857 44.9127 37.3657 40.2927 31.6672 40.2927C25.9688 40.2927 21.3488 44.9127 21.3488 50.6111C21.3488 56.3114 25.9688 60.9314 31.6672 60.9314Z" fill="url(#paint5_linear_1_341)"/>
<path d="M31.6673 55.3884C29.0292 55.3884 26.8906 53.2498 26.8906 50.6117C26.8906 47.9736 29.0292 45.835 31.6673 45.835C34.3054 45.835 36.444 47.9736 36.444 50.6117C36.444 53.2498 34.3054 55.3884 31.6673 55.3884Z" fill="url(#paint6_linear_1_341)"/>
<path d="M31.6673 11.5803C28.5629 11.5803 26.0463 9.06368 26.0463 5.95932C26.0463 2.85496 28.5629 0.338379 31.6673 0.338379C34.7716 0.338379 37.2882 2.85496 37.2882 5.95932C37.2882 9.06368 34.7716 11.5803 31.6673 11.5803Z" fill="url(#paint7_linear_1_341)"/>
<path d="M37.2882 5.95945C37.2882 9.06375 34.7716 11.5804 31.6673 11.5804C28.5628 11.5804 26.0463 9.06375 26.0463 5.95945C26.0463 5.2871 26.1647 4.64263 26.3813 4.04492H36.9534C37.1698 4.64263 37.2882 5.2871 37.2882 5.95945Z" fill="url(#paint8_linear_1_341)"/>
<path d="M35.6419 9.93385C33.4468 12.129 29.8877 12.129 27.6926 9.93385C25.4975 7.73873 25.4975 4.17968 27.6926 1.98456C28.168 1.50915 28.7075 1.13715 29.2831 0.867676L36.7588 8.34332C36.4893 8.91897 36.1173 9.45844 35.6419 9.93385Z" fill="url(#paint9_linear_1_341)"/>
<path d="M23.087 41.8572C22.5307 42.4134 21.6292 42.4134 21.0729 41.8572L19.6529 40.4371C19.0966 39.8809 19.0966 38.9793 19.6529 38.423C20.2091 37.8668 21.1107 37.8668 21.6669 38.423L23.087 39.8431C23.6432 40.3993 23.6432 41.3009 23.087 41.8572Z" fill="url(#paint10_linear_1_341)"/>
<path d="M18.9503 51.8445C18.9503 52.6311 18.3127 53.2686 17.5262 53.2686H15.518C14.7314 53.2686 14.0938 52.6311 14.0938 51.8445C14.0938 51.0578 14.7314 50.4204 15.518 50.4204H17.5262C18.3127 50.4204 18.9503 51.058 18.9503 51.8445Z" fill="url(#paint11_linear_1_341)"/>
<path d="M33.0739 37.7207C32.2874 37.7207 31.6498 37.0831 31.6498 36.2966V34.2884C31.6498 33.5017 32.2874 32.8643 33.0739 32.8643C33.8606 32.8643 34.498 33.5018 34.498 34.2884V36.2966C34.498 37.0831 33.8606 37.7207 33.0739 37.7207Z" fill="url(#paint12_linear_1_341)"/>
<path d="M30.9231 48.9424H63.2894C63.7432 57.5937 60.6675 66.3957 54.0594 73.0038C41.6925 85.3707 21.6419 85.3707 9.27506 73.0038C8.87024 72.599 8.47935 72.1853 8.101 71.7644L30.9231 48.9424Z" fill="url(#paint13_linear_1_341)"/>
<path d="M38.9366 58.1089L58.4169 67.5709C57.1927 69.4979 55.7412 71.3221 54.0596 73.0037C44.2802 82.7832 29.6963 84.8271 17.9061 79.1396L38.9366 58.1089Z" fill="url(#paint14_linear_1_341)"/>
<path d="M78.3666 50.6113L80.1503 48.8276C82.0121 46.9658 83.0579 44.4409 83.0579 41.8081C83.0579 41.1255 82.5044 40.5723 81.822 40.5723H79.4238C75.8992 40.5723 72.5189 41.9724 70.0266 44.4647C68.6016 45.8897 67.8011 47.8224 67.8011 49.8377V50.6113H78.3666Z" fill="url(#paint15_linear_1_341)"/>
<path d="M78.3666 50.6115L80.1503 52.3951C82.0121 54.2569 83.0579 56.7818 83.0579 59.4146C83.0579 60.0972 82.5044 60.6504 81.822 60.6504H79.4238C75.8992 60.6504 72.5189 59.2503 70.0266 56.758C68.6016 55.333 67.8011 53.4003 67.8011 51.385V50.6113H78.3666V50.6115Z" fill="url(#paint16_linear_1_341)"/>
<path d="M78.3666 50.6115L80.1503 52.3951C82.0121 54.2569 83.0579 56.7818 83.0579 59.4146C83.0579 60.0972 82.5044 60.6504 81.822 60.6504H79.4238C75.8992 60.6504 72.5189 59.2503 70.0266 56.758C68.6016 55.333 67.8011 53.4003 67.8011 51.385V50.6113H78.3666V50.6115Z" fill="url(#paint17_linear_1_341)"/>
<path d="M32.0187 51.276H43.0321C43.8186 51.276 44.4562 50.6384 44.4562 49.8519C44.4562 49.0653 43.8186 48.4277 43.0321 48.4277H32.0187C31.2322 48.4277 30.5946 49.0653 30.5946 49.8519C30.5946 50.6384 31.2322 51.276 32.0187 51.276Z" fill="url(#paint18_linear_1_341)"/>
<path d="M73.8694 50.6115C73.8694 54.1489 64.851 57.0165 53.7265 57.0165C42.602 57.0165 38.5082 54.1489 38.5082 50.6115C38.5082 47.0742 42.602 44.2065 53.7265 44.2065C64.851 44.2065 73.8694 47.0742 73.8694 50.6115Z" fill="url(#paint19_linear_1_341)"/>
<path d="M79.9474 50.6111C79.9474 49.6891 79.2002 48.9419 78.2782 48.9419H68.6354C67.7134 48.9419 66.9662 49.6891 66.9662 50.6111C66.9662 51.5332 67.7134 52.2804 68.6354 52.2804H78.2782C79.2002 52.2804 79.9474 51.5332 79.9474 50.6111Z" fill="url(#paint20_linear_1_341)"/>
<path d="M58.3542 50.6114C58.3542 48.4343 58.2067 46.3318 57.9332 44.3467C58.8944 44.4116 59.8304 44.4983 60.7357 44.605C60.9868 46.5139 61.1211 48.5287 61.1211 50.6112C61.1211 52.6937 60.9866 54.7087 60.7357 56.6174C59.8304 56.7243 58.8946 56.8108 57.9332 56.8757C58.2069 54.8908 58.3542 52.7885 58.3542 50.6114Z" fill="url(#paint21_linear_1_341)"/>
<path d="M52.3479 44.2236C52.6324 46.2449 52.7859 48.3892 52.7859 50.6113C52.7859 52.8335 52.6324 54.9778 52.3479 56.999C42.2652 56.7691 38.508 53.9982 38.508 50.6113C38.5082 47.2245 42.2652 44.4536 52.3479 44.2236Z" fill="url(#paint22_linear_1_341)"/>
<path d="M81.9118 78.9866L84.2822 78.1238C86.7563 77.2233 88.7712 75.3769 89.8839 72.9908C90.1724 72.3723 89.9047 71.637 89.2862 71.3484L87.1128 70.335C83.9183 68.8454 80.2631 68.6858 76.9509 69.8913C75.0572 70.5806 73.5148 71.9938 72.6632 73.8203L72.3362 74.5214L81.9118 78.9866Z" fill="url(#paint23_linear_1_341)"/>
<path d="M81.9118 78.9867L82.7746 81.3571C83.6751 83.8312 83.5558 86.5615 82.4432 88.9478C82.1547 89.5663 81.4193 89.834 80.8008 89.5455L78.6274 88.532C75.4329 87.0424 72.9611 84.3449 71.7556 81.0327C71.0663 79.139 71.1575 77.0491 72.0092 75.2226L72.3362 74.5215L81.9118 78.9867Z" fill="url(#paint24_linear_1_341)"/>
<path d="M81.9118 78.9867L82.7746 81.3571C83.6751 83.8312 83.5558 86.5615 82.4432 88.9478C82.1547 89.5663 81.4193 89.834 80.8008 89.5455L78.6274 88.532C75.4329 87.0424 72.9611 84.3449 71.7556 81.0327C71.0663 79.139 71.1575 77.0491 72.0092 75.2226L72.3362 74.5215L81.9118 78.9867Z" fill="url(#paint25_linear_1_341)"/>
<path d="M39.6254 60.0013L49.607 64.6558C50.3197 64.9882 51.1672 64.6798 51.4996 63.967C51.8321 63.2542 51.5236 62.4068 50.8109 62.0743L40.8293 57.4199C40.1166 57.0875 39.2691 57.3959 38.9367 58.1087C38.6042 58.8215 38.9127 59.6689 39.6254 60.0013Z" fill="url(#paint26_linear_1_341)"/>
<path d="M77.8359 77.0857C76.341 80.2916 66.9556 79.0793 56.8733 74.3779C46.791 69.6764 44.2927 65.3474 45.7878 62.1414C47.2826 58.9355 52.2048 58.0666 62.2871 62.7681C72.3694 67.4696 79.3309 73.8797 77.8359 77.0857Z" fill="url(#paint27_linear_1_341)"/>
<path d="M83.3446 79.6544C83.7343 78.8188 83.3729 77.8258 82.5373 77.4362L73.7981 73.3609C72.9625 72.9713 71.9695 73.3327 71.5799 74.1683C71.1902 75.0039 71.5516 75.9969 72.3872 76.3865L81.1264 80.4618C81.962 80.8514 82.955 80.49 83.3446 79.6544Z" fill="url(#paint28_linear_1_341)"/>
<path d="M63.7746 70.529C64.6947 68.5559 65.4494 66.588 66.0406 64.6733C66.8843 65.1385 67.6961 65.6125 68.4713 66.092C67.8921 67.9282 67.1624 69.8109 66.2824 71.6985C65.4021 73.586 64.4289 75.3551 63.3946 76.979C62.529 76.6933 61.6442 76.3762 60.7454 76.0289C61.8323 74.3452 62.8544 72.5021 63.7746 70.529Z" fill="url(#paint29_linear_1_341)"/>
<path d="M61.0306 62.2011C60.4342 64.1532 59.6672 66.1616 58.7281 68.1755C57.7889 70.1894 56.7436 72.0679 55.6315 73.7797C46.5908 69.31 44.3566 65.211 45.788 62.1415C47.2192 59.0719 51.7954 58.1485 61.0306 62.2011Z" fill="url(#paint30_linear_1_341)"/>
</g>
<defs>
<linearGradient id="paint0_linear_1_341" x1="47.8839" y1="17.27" x2="15.4507" y2="49.703" gradientUnits="userSpaceOnUse">
<stop stop-color="#5A5A5A"/>
<stop offset="1" stop-color="#444444"/>
</linearGradient>
<linearGradient id="paint1_linear_1_341" x1="54.0595" y1="28.2195" x2="5.09982" y2="77.1791" gradientUnits="userSpaceOnUse">
<stop stop-color="#FFA1AE"/>
<stop offset="1" stop-color="#FF4565"/>
</linearGradient>
<linearGradient id="paint2_linear_1_341" x1="31.6673" y1="51.0122" x2="31.6673" y2="88.2644" gradientUnits="userSpaceOnUse">
<stop stop-color="#FD4755" stop-opacity="0"/>
<stop offset="0.2586" stop-color="#F74453" stop-opacity="0.259"/>
<stop offset="0.6211" stop-color="#E53B4C" stop-opacity="0.621"/>
<stop offset="1" stop-color="#CA2E43"/>
</linearGradient>
<linearGradient id="paint3_linear_1_341" x1="31.363" y1="50.8941" x2="3.63992" y2="78.6172" gradientUnits="userSpaceOnUse">
<stop stop-color="#FD4755" stop-opacity="0"/>
<stop offset="0.2586" stop-color="#F74453" stop-opacity="0.259"/>
<stop offset="0.6211" stop-color="#E53B4C" stop-opacity="0.621"/>
<stop offset="1" stop-color="#CA2E43"/>
</linearGradient>
<linearGradient id="paint4_linear_1_341" x1="49.3857" y1="32.8933" x2="10.6453" y2="71.6337" gradientUnits="userSpaceOnUse">
<stop stop-color="#FFFAF8"/>
<stop offset="1" stop-color="#FFDFCF"/>
</linearGradient>
<linearGradient id="paint5_linear_1_341" x1="44.1328" y1="38.1464" x2="19.4765" y2="62.8027" gradientUnits="userSpaceOnUse">
<stop stop-color="#FFA1AE"/>
<stop offset="1" stop-color="#FF4565"/>
</linearGradient>
<linearGradient id="paint6_linear_1_341" x1="44.1328" y1="38.1463" x2="19.4763" y2="62.8026" gradientUnits="userSpaceOnUse">
<stop stop-color="#FFA1AE"/>
<stop offset="1" stop-color="#FF4565"/>
</linearGradient>
<linearGradient id="paint7_linear_1_341" x1="34.6923" y1="2.93426" x2="30.1719" y2="7.45491" gradientUnits="userSpaceOnUse">
<stop stop-color="#FEF0AE"/>
<stop offset="1" stop-color="#FFBF51"/>
</linearGradient>
<linearGradient id="paint8_linear_1_341" x1="31.6673" y1="6.03057" x2="31.6673" y2="12.6429" gradientUnits="userSpaceOnUse">
<stop stop-color="#FEA613" stop-opacity="0"/>
<stop offset="0.1766" stop-color="#FDA116" stop-opacity="0.177"/>
<stop offset="0.3939" stop-color="#FA921D" stop-opacity="0.394"/>
<stop offset="0.6325" stop-color="#F4792A" stop-opacity="0.633"/>
<stop offset="0.8846" stop-color="#ED573B" stop-opacity="0.885"/>
<stop offset="1" stop-color="#E94444"/>
</linearGradient>
<linearGradient id="paint9_linear_1_341" x1="31.5959" y1="6.01513" x2="26.675" y2="10.936" gradientUnits="userSpaceOnUse">
<stop stop-color="#FEA613" stop-opacity="0"/>
<stop offset="0.1766" stop-color="#FDA116" stop-opacity="0.177"/>
<stop offset="0.3939" stop-color="#FA921D" stop-opacity="0.394"/>
<stop offset="0.6325" stop-color="#F4792A" stop-opacity="0.633"/>
<stop offset="0.8846" stop-color="#ED573B" stop-opacity="0.885"/>
<stop offset="1" stop-color="#E94444"/>
</linearGradient>
<linearGradient id="paint10_linear_1_341" x1="23.5042" y1="40.1403" x2="19.2357" y2="40.1403" gradientUnits="userSpaceOnUse">
<stop stop-color="#FEF0AE"/>
<stop offset="1" stop-color="#FFBF51"/>
</linearGradient>
<linearGradient id="paint11_linear_1_341" x1="18.9503" y1="51.8445" x2="14.0937" y2="51.8445" gradientUnits="userSpaceOnUse">
<stop stop-color="#FEF0AE"/>
<stop offset="1" stop-color="#FFBF51"/>
</linearGradient>
<linearGradient id="paint12_linear_1_341" x1="34.498" y1="35.2925" x2="31.6498" y2="35.2925" gradientUnits="userSpaceOnUse">
<stop stop-color="#FEF0AE"/>
<stop offset="1" stop-color="#FFBF51"/>
</linearGradient>
<linearGradient id="paint13_linear_1_341" x1="35.7211" y1="62.745" x2="38.3795" y2="49.4529" gradientUnits="userSpaceOnUse">
<stop stop-color="#FD4755" stop-opacity="0"/>
<stop offset="0.2586" stop-color="#F74453" stop-opacity="0.259"/>
<stop offset="0.6211" stop-color="#E53B4C" stop-opacity="0.621"/>
<stop offset="1" stop-color="#CA2E43"/>
</linearGradient>
<linearGradient id="paint14_linear_1_341" x1="39.4108" y1="71.7686" x2="45.1073" y2="64.1731" gradientUnits="userSpaceOnUse">
<stop stop-color="#FD4755" stop-opacity="0"/>
<stop offset="0.2586" stop-color="#F74453" stop-opacity="0.259"/>
<stop offset="0.6211" stop-color="#E53B4C" stop-opacity="0.621"/>
<stop offset="1" stop-color="#CA2E43"/>
</linearGradient>
<linearGradient id="paint15_linear_1_341" x1="78.4634" y1="41.3493" x2="73.2733" y2="49.5777" gradientUnits="userSpaceOnUse">
<stop stop-color="#FEF0AE"/>
<stop offset="1" stop-color="#FFBF51"/>
</linearGradient>
<linearGradient id="paint16_linear_1_341" x1="77.6501" y1="52.0446" x2="73.0294" y2="58.6275" gradientUnits="userSpaceOnUse">
<stop stop-color="#FEF0AE"/>
<stop offset="1" stop-color="#FFBF51"/>
</linearGradient>
<linearGradient id="paint17_linear_1_341" x1="75.843" y1="57.2142" x2="74.4507" y2="50.6948" gradientUnits="userSpaceOnUse">
<stop stop-color="#FEA613" stop-opacity="0"/>
<stop offset="0.1766" stop-color="#FDA116" stop-opacity="0.177"/>
<stop offset="0.3939" stop-color="#FA921D" stop-opacity="0.394"/>
<stop offset="0.6325" stop-color="#F4792A" stop-opacity="0.633"/>
<stop offset="0.8846" stop-color="#ED573B" stop-opacity="0.885"/>
<stop offset="1" stop-color="#E94444"/>
</linearGradient>
<linearGradient id="paint18_linear_1_341" x1="37.5253" y1="48.4277" x2="37.5253" y2="51.276" gradientUnits="userSpaceOnUse">
<stop stop-color="#B9ACAC"/>
<stop offset="1" stop-color="#766E6E"/>
</linearGradient>
<linearGradient id="paint19_linear_1_341" x1="56.1888" y1="46.2227" x2="56.1888" y2="54.7207" gradientUnits="userSpaceOnUse">
<stop stop-color="#B4EBA8"/>
<stop offset="1" stop-color="#24CE20"/>
</linearGradient>
<linearGradient id="paint20_linear_1_341" x1="73.4568" y1="49.1394" x2="73.4568" y2="52.2433" gradientUnits="userSpaceOnUse">
<stop stop-color="#FEF0AE"/>
<stop offset="1" stop-color="#FFBF51"/>
</linearGradient>
<linearGradient id="paint21_linear_1_341" x1="59.5272" y1="31.1412" x2="59.5272" y2="56.7446" gradientUnits="userSpaceOnUse">
<stop stop-color="#017B4E" stop-opacity="0"/>
<stop offset="1" stop-color="#017B4E"/>
</linearGradient>
<linearGradient id="paint22_linear_1_341" x1="45.6471" y1="31.1412" x2="45.6471" y2="56.7446" gradientUnits="userSpaceOnUse">
<stop stop-color="#017B4E" stop-opacity="0"/>
<stop offset="1" stop-color="#017B4E"/>
</linearGradient>
<linearGradient id="paint23_linear_1_341" x1="85.8949" y1="70.6126" x2="77.7117" y2="75.8721" gradientUnits="userSpaceOnUse">
<stop stop-color="#FEF0AE"/>
<stop offset="1" stop-color="#FFBF51"/>
</linearGradient>
<linearGradient id="paint24_linear_1_341" x1="80.6337" y1="79.9586" x2="73.663" y2="83.9681" gradientUnits="userSpaceOnUse">
<stop stop-color="#FEF0AE"/>
<stop offset="1" stop-color="#FFBF51"/>
</linearGradient>
<linearGradient id="paint25_linear_1_341" x1="76.81" y1="83.8777" x2="78.3061" y2="77.3822" gradientUnits="userSpaceOnUse">
<stop stop-color="#FEA613" stop-opacity="0"/>
<stop offset="0.1766" stop-color="#FDA116" stop-opacity="0.177"/>
<stop offset="0.3939" stop-color="#FA921D" stop-opacity="0.394"/>
<stop offset="0.6325" stop-color="#F4792A" stop-opacity="0.633"/>
<stop offset="0.8846" stop-color="#ED573B" stop-opacity="0.885"/>
<stop offset="1" stop-color="#E94444"/>
</linearGradient>
<linearGradient id="paint26_linear_1_341" x1="45.8107" y1="59.7086" x2="44.6059" y2="62.2891" gradientUnits="userSpaceOnUse">
<stop stop-color="#B9ACAC"/>
<stop offset="1" stop-color="#766E6E"/>
</linearGradient>
<linearGradient id="paint27_linear_1_341" x1="63.6525" y1="65.6052" x2="60.0578" y2="73.3043" gradientUnits="userSpaceOnUse">
<stop stop-color="#D5DAF3"/>
<stop offset="1" stop-color="#60B7FF"/>
</linearGradient>
<linearGradient id="paint28_linear_1_341" x1="77.944" y1="75.6447" x2="76.631" y2="78.4568" gradientUnits="userSpaceOnUse">
<stop stop-color="#FEF0AE"/>
<stop offset="1" stop-color="#FFBF51"/>
</linearGradient>
<linearGradient id="paint29_linear_1_341" x1="73.0567" y1="53.3542" x2="62.2265" y2="76.5507" gradientUnits="userSpaceOnUse">
<stop stop-color="#1F3596" stop-opacity="0"/>
<stop offset="0.4068" stop-color="#1D3290" stop-opacity="0.407"/>
<stop offset="0.9508" stop-color="#192B7F" stop-opacity="0.951"/>
<stop offset="1" stop-color="#192A7D"/>
</linearGradient>
<linearGradient id="paint30_linear_1_341" x1="60.4811" y1="47.4826" x2="49.651" y2="70.6791" gradientUnits="userSpaceOnUse">
<stop stop-color="#1F3596" stop-opacity="0"/>
<stop offset="0.4068" stop-color="#1D3290" stop-opacity="0.407"/>
<stop offset="0.9508" stop-color="#192B7F" stop-opacity="0.951"/>
<stop offset="1" stop-color="#192A7D"/>
</linearGradient>
<clipPath id="clip0_1_341">
<rect width="90" height="90" fill="white" transform="matrix(-1 0 0 1 90 0)"/>
</clipPath>
</defs>
</svg>
