<svg width="90" height="90" viewBox="0 0 90 90" fill="none" xmlns="http://www.w3.org/2000/svg">
<g clip-path="url(#clip0_1_402)">
<path d="M35.9938 83.2125L27.1708 74.3895L32.6448 68.9155L35.9938 83.2125Z" fill="url(#paint0_linear_1_402)"/>
<path d="M35.9938 83.2125L27.1708 74.3895L32.6448 68.9155L35.9938 83.2125Z" fill="url(#paint1_linear_1_402)"/>
<path d="M35.9938 83.2125L27.1708 74.3895L32.6448 68.9155L35.9938 83.2125Z" fill="url(#paint2_linear_1_402)"/>
<path d="M16.0028 89.3566L37.5393 67.8201L53.4809 61.0262C54.9422 60.4034 54.8768 58.3103 53.3795 57.78L2.58888 39.7884C1.06046 39.3743 -0.340515 40.7753 0.073452 42.3039L12.5734 88.4429C12.9856 89.964 14.8883 90.4709 16.0028 89.3566Z" fill="url(#paint3_linear_1_402)"/>
<path d="M0.601124 40.3199H0.606396C0.662647 40.2636 0.752289 40.2654 0.810299 40.3164L35.3119 66.1525C35.5927 66.3628 35.9929 66.1624 35.9929 65.8117V51.6207L2.58921 39.7888C1.8228 39.5816 1.08979 39.8295 0.601124 40.3199Z" fill="url(#paint4_linear_1_402)"/>
<path d="M35.9717 51.6138L53.3795 57.7802C54.8766 58.3105 54.942 60.4035 53.4809 61.0263L37.5393 67.8203L23.594 57.3773C23.594 57.3773 30.5757 54.1092 35.9717 51.6138Z" fill="url(#paint5_linear_1_402)"/>
<path d="M0.0739708 42.3035L12.5727 88.4436C12.9858 89.9637 14.8879 90.4718 16.0027 89.3568L32.3019 73.0576C31.9547 72.4798 31.5399 71.9427 31.0628 71.46L0.601313 40.5253C0.548929 40.4671 0.548931 40.376 0.605181 40.3217C0.605181 40.3217 0.605181 40.3198 0.605181 40.3159C0.11475 40.8046 -0.133453 41.5376 0.0739708 42.3035Z" fill="url(#paint6_linear_1_402)"/>
<path d="M23.7755 61.8643L33.8966 71.4628L16.0028 89.3566C14.8883 90.4709 12.9858 89.9639 12.5736 88.4429L8.82475 74.6054L23.7755 61.8643Z" fill="url(#paint7_linear_1_402)"/>
<path d="M0.604675 40.3216C0.605381 40.3209 0.606079 40.3204 0.606609 40.3197C0.66198 40.2643 0.752159 40.2646 0.811047 40.3163L37.5393 67.8203V82.5319C37.5393 83.5752 36.0759 83.8106 35.749 82.8197L33.0996 74.793C32.6862 73.5402 31.9895 72.3996 31.0639 71.4597L0.601162 40.5262C0.54966 40.4671 0.549305 40.377 0.604675 40.3216Z" fill="url(#paint8_linear_1_402)"/>
<path d="M0.604675 40.3216C0.605381 40.3209 0.606079 40.3204 0.606609 40.3197C0.66198 40.2643 0.752159 40.2646 0.811047 40.3163L37.5393 67.8203V82.5319C37.5393 83.5752 36.0759 83.8106 35.749 82.8197L33.0996 74.793C32.6862 73.5402 31.9895 72.3996 31.0639 71.4597L0.601162 40.5262C0.54966 40.4671 0.549305 40.377 0.604675 40.3216Z" fill="url(#paint9_linear_1_402)"/>
<path d="M65.3948 57.7476L53.6897 46.0425L60.9517 38.7803L65.3948 57.7476Z" fill="url(#paint10_linear_1_402)"/>
<path d="M65.3948 57.7476L53.6897 46.0425L60.9517 38.7803L65.3948 57.7476Z" fill="url(#paint11_linear_1_402)"/>
<path d="M65.3948 57.7476L53.6897 46.0425L60.9517 38.7803L65.3948 57.7476Z" fill="url(#paint12_linear_1_402)"/>
<path d="M38.8733 65.8989L67.4451 37.3272L88.5943 28.3139C90.5328 27.4877 90.4461 24.7109 88.4598 24.0072L21.0777 0.138617C19.0501 -0.4107 17.1914 1.44801 17.7407 3.47565L34.3241 64.6867C34.8708 66.7047 37.395 67.3774 38.8733 65.8989Z" fill="url(#paint13_linear_1_402)"/>
<path d="M65.3655 15.8267L88.4598 24.0073C90.4461 24.711 90.5328 27.4878 88.5943 28.3138L67.4451 37.3272L48.9445 23.473C48.9445 23.4728 58.2068 19.1371 65.3655 15.8267Z" fill="url(#paint14_linear_1_402)"/>
<path d="M17.7413 3.47492L34.3229 64.6874C34.8708 66.7041 37.3943 67.3781 38.8735 65.8991L60.4971 44.2757C60.0365 43.5091 59.4862 42.7965 58.8533 42.1559L18.4411 1.11611C18.3716 1.03895 18.3716 0.918008 18.4462 0.846113C18.4462 0.846113 18.4462 0.843477 18.4462 0.838379C17.7954 1.48648 17.4662 2.45891 17.7413 3.47492Z" fill="url(#paint15_linear_1_402)"/>
<path d="M49.1851 29.4258L62.6125 42.1597L38.8735 65.8988C37.3951 67.3771 34.8709 66.7046 34.3242 64.6866L29.3507 46.3289L49.1851 29.4258Z" fill="url(#paint16_linear_1_402)"/>
<path d="M18.4453 0.845726C18.4462 0.844847 18.447 0.843968 18.4479 0.843089C18.5214 0.769613 18.6411 0.77014 18.7192 0.838519L67.4452 37.3272V56.8445C67.4452 58.2286 65.5039 58.5408 65.07 57.2263L61.5553 46.5775C61.0067 44.9155 60.0826 43.4024 58.8546 42.1552L18.4407 1.11713C18.3725 1.03891 18.372 0.919203 18.4453 0.845726Z" fill="url(#paint17_linear_1_402)"/>
<path d="M18.4453 0.845726C18.4462 0.844847 18.447 0.843968 18.4479 0.843089C18.5214 0.769613 18.6411 0.77014 18.7192 0.838519L67.4452 37.3272V56.8445C67.4452 58.2286 65.5039 58.5408 65.07 57.2263L61.5553 46.5775C61.0067 44.9155 60.0826 43.4024 58.8546 42.1552L18.4407 1.11713C18.3725 1.03891 18.372 0.919203 18.4453 0.845726Z" fill="url(#paint18_linear_1_402)"/>
</g>
<defs>
<linearGradient id="paint0_linear_1_402" x1="37.672" y1="69.6283" x2="30.3" y2="80.7324" gradientUnits="userSpaceOnUse">
<stop stop-color="#FEF0AE"/>
<stop offset="1" stop-color="#FAC600"/>
</linearGradient>
<linearGradient id="paint1_linear_1_402" x1="35.8746" y1="78.1968" x2="31.5898" y2="73.4971" gradientUnits="userSpaceOnUse">
<stop stop-color="#FE9738" stop-opacity="0"/>
<stop offset="1" stop-color="#FE9738"/>
</linearGradient>
<linearGradient id="paint2_linear_1_402" x1="28.2395" y1="78.4497" x2="33.6995" y2="76.3073" gradientUnits="userSpaceOnUse">
<stop stop-color="#FE9738" stop-opacity="0"/>
<stop offset="1" stop-color="#FE9738"/>
</linearGradient>
<linearGradient id="paint3_linear_1_402" x1="45.1557" y1="32.7479" x2="-5.57282" y2="83.2001" gradientUnits="userSpaceOnUse">
<stop stop-color="#FEF0AE"/>
<stop offset="1" stop-color="#FAC600"/>
</linearGradient>
<linearGradient id="paint4_linear_1_402" x1="24.3363" y1="51.4391" x2="30.7689" y2="49.6848" gradientUnits="userSpaceOnUse">
<stop stop-color="#FE9738" stop-opacity="0"/>
<stop offset="1" stop-color="#FE9738"/>
</linearGradient>
<linearGradient id="paint5_linear_1_402" x1="40.6287" y1="62.3586" x2="42.3564" y2="66.9201" gradientUnits="userSpaceOnUse">
<stop stop-color="#FE9738" stop-opacity="0"/>
<stop offset="1" stop-color="#FE9738"/>
</linearGradient>
<linearGradient id="paint6_linear_1_402" x1="11.4363" y1="64.096" x2="5.76911" y2="65.6855" gradientUnits="userSpaceOnUse">
<stop stop-color="#FE9738" stop-opacity="0"/>
<stop offset="1" stop-color="#FE9738"/>
</linearGradient>
<linearGradient id="paint7_linear_1_402" x1="20.5756" y1="77.2402" x2="24.9066" y2="81.9399" gradientUnits="userSpaceOnUse">
<stop stop-color="#FE9738" stop-opacity="0"/>
<stop offset="1" stop-color="#FE9738"/>
</linearGradient>
<linearGradient id="paint8_linear_1_402" x1="6.29349" y1="74.401" x2="25.5387" y2="55.1556" gradientUnits="userSpaceOnUse">
<stop stop-color="#FEF0AE"/>
<stop offset="1" stop-color="#FAC600"/>
</linearGradient>
<linearGradient id="paint9_linear_1_402" x1="25.4436" y1="56.2347" x2="19.4999" y2="61.28" gradientUnits="userSpaceOnUse">
<stop stop-color="#FE9738" stop-opacity="0"/>
<stop offset="1" stop-color="#FE9738"/>
</linearGradient>
<linearGradient id="paint10_linear_1_402" x1="67.6212" y1="39.726" x2="57.8411" y2="54.4573" gradientUnits="userSpaceOnUse">
<stop stop-color="#C9F6B0"/>
<stop offset="1" stop-color="#0BB494"/>
</linearGradient>
<linearGradient id="paint11_linear_1_402" x1="65.2367" y1="51.0934" x2="59.552" y2="44.8586" gradientUnits="userSpaceOnUse">
<stop stop-color="#00A887" stop-opacity="0"/>
<stop offset="0.3602" stop-color="#01A58C" stop-opacity="0.36"/>
<stop offset="0.7945" stop-color="#069C9A" stop-opacity="0.795"/>
<stop offset="1" stop-color="#0996A4"/>
</linearGradient>
<linearGradient id="paint12_linear_1_402" x1="55.1075" y1="51.429" x2="62.3509" y2="48.5866" gradientUnits="userSpaceOnUse">
<stop stop-color="#00A887" stop-opacity="0"/>
<stop offset="0.3602" stop-color="#01A58C" stop-opacity="0.36"/>
<stop offset="0.7945" stop-color="#069C9A" stop-opacity="0.795"/>
<stop offset="1" stop-color="#0996A4"/>
</linearGradient>
<linearGradient id="paint13_linear_1_402" x1="77.5496" y1="-9.2017" x2="10.25" y2="57.7312" gradientUnits="userSpaceOnUse">
<stop stop-color="#C9F6B0"/>
<stop offset="1" stop-color="#0BB494"/>
</linearGradient>
<linearGradient id="paint14_linear_1_402" x1="71.5436" y1="30.0815" x2="73.8358" y2="36.1329" gradientUnits="userSpaceOnUse">
<stop stop-color="#00A887" stop-opacity="0"/>
<stop offset="0.3602" stop-color="#01A58C" stop-opacity="0.36"/>
<stop offset="0.7945" stop-color="#069C9A" stop-opacity="0.795"/>
<stop offset="1" stop-color="#0996A4"/>
</linearGradient>
<linearGradient id="paint15_linear_1_402" x1="32.8154" y1="32.3864" x2="25.2969" y2="34.4952" gradientUnits="userSpaceOnUse">
<stop stop-color="#00A887" stop-opacity="0"/>
<stop offset="0.3602" stop-color="#01A58C" stop-opacity="0.36"/>
<stop offset="0.7945" stop-color="#069C9A" stop-opacity="0.795"/>
<stop offset="1" stop-color="#0996A4"/>
</linearGradient>
<linearGradient id="paint16_linear_1_402" x1="44.9399" y1="49.8245" x2="50.6858" y2="56.0593" gradientUnits="userSpaceOnUse">
<stop stop-color="#00A887" stop-opacity="0"/>
<stop offset="0.3602" stop-color="#01A58C" stop-opacity="0.36"/>
<stop offset="0.7945" stop-color="#069C9A" stop-opacity="0.795"/>
<stop offset="1" stop-color="#0996A4"/>
</linearGradient>
<linearGradient id="paint17_linear_1_402" x1="25.9925" y1="46.0575" x2="51.5245" y2="20.5255" gradientUnits="userSpaceOnUse">
<stop stop-color="#C9F6B0"/>
<stop offset="1" stop-color="#0BB494"/>
</linearGradient>
<linearGradient id="paint18_linear_1_402" x1="51.3983" y1="21.9571" x2="43.5131" y2="28.6505" gradientUnits="userSpaceOnUse">
<stop stop-color="#00A887" stop-opacity="0"/>
<stop offset="0.3602" stop-color="#01A58C" stop-opacity="0.36"/>
<stop offset="0.7945" stop-color="#069C9A" stop-opacity="0.795"/>
<stop offset="1" stop-color="#0996A4"/>
</linearGradient>
<clipPath id="clip0_1_402">
<rect width="90" height="90" fill="white" transform="matrix(-1 0 0 1 90 0)"/>
</clipPath>
</defs>
</svg>
