<svg width="90" height="90" viewBox="0 0 90 90" fill="none" xmlns="http://www.w3.org/2000/svg">
<g clip-path="url(#clip0_1_526)">
<path d="M84.7059 11.7354H5.29412C2.37018 11.7354 0 14.1055 0 17.0295V72.9707C0 75.8946 2.37018 78.2648 5.29412 78.2648H84.7059C87.6298 78.2648 90 75.8946 90 72.9707V17.0295C90 14.1055 87.6298 11.7354 84.7059 11.7354Z" fill="url(#paint0_linear_1_526)"/>
<path d="M84.7059 78.2648H52.4117V11.7354H84.7059C87.6298 11.7354 90 14.1055 90 17.0295V72.9707C90 75.8946 87.6298 78.2648 84.7059 78.2648Z" fill="url(#paint1_linear_1_526)"/>
<path d="M84.7059 78.2646H5.29412C2.37018 78.2646 0 75.8944 0 72.9705V22.5518H90V72.9705C90 75.8944 87.6298 78.2646 84.7059 78.2646Z" fill="url(#paint2_linear_1_526)"/>
<path d="M88.422 76.7403L45.2285 33.5469L26.9838 51.7916L53.4568 78.2649H84.7059C86.1542 78.2649 87.4662 77.6827 88.422 76.7403Z" fill="url(#paint3_linear_1_526)"/>
<path d="M90 72.9704V61.2279L60.339 31.5669L48.5407 69.4857L57.3196 78.2645H84.7059C87.6298 78.2645 90 75.8944 90 72.9704Z" fill="url(#paint4_linear_1_526)"/>
<path d="M84.7059 78.2646H52.4117V22.5518H90V72.9705C90 75.8944 87.6298 78.2646 84.7059 78.2646Z" fill="url(#paint5_linear_1_526)"/>
<path d="M90 72.9708V56.997L81.8517 48.8486L63.4302 67.27L74.4251 78.2649H84.7059C87.6298 78.2649 90 75.8947 90 72.9708Z" fill="url(#paint6_linear_1_526)"/>
<path d="M0 70.147V72.9705C0 75.8944 2.37018 78.2646 5.29412 78.2646H84.7059C87.6298 78.2646 90 75.8944 90 72.9705V70.147H0Z" fill="url(#paint7_linear_1_526)"/>
<path d="M9.19905 54.0366H23.2939C24.231 54.0366 24.9907 53.2769 24.9907 52.3398C24.9907 51.4028 24.231 50.6431 23.2939 50.6431H9.19905C8.26182 50.6431 7.50229 51.4028 7.50229 52.3398C7.50229 53.2769 8.26199 54.0366 9.19905 54.0366Z" fill="url(#paint8_linear_1_526)"/>
<path d="M9.19905 47.8999H14.7873C15.7244 47.8999 16.4841 47.1402 16.4841 46.2031C16.4841 45.2659 15.7244 44.5063 14.7873 44.5063H9.19905C8.26182 44.5063 7.50229 45.2661 7.50229 46.2031C7.50229 47.1402 8.26199 47.8999 9.19905 47.8999Z" fill="url(#paint9_linear_1_526)"/>
<path d="M9.19905 33.2641H14.7873C15.7244 33.2641 16.4841 32.5044 16.4841 31.5674C16.4841 30.6301 15.7244 29.8706 14.7873 29.8706H9.19905C8.26182 29.8706 7.50229 30.6303 7.50229 31.5674C7.50229 32.5044 8.26199 33.2641 9.19905 33.2641Z" fill="url(#paint10_linear_1_526)"/>
<path d="M19.969 47.8999H23.263C24.2003 47.8999 24.9598 47.1402 24.9598 46.2031C24.9598 45.2661 24.2001 44.5063 23.263 44.5063H19.969C19.032 44.5063 18.2723 45.2661 18.2723 46.2031C18.2723 47.1403 19.032 47.8999 19.969 47.8999Z" fill="url(#paint11_linear_1_526)"/>
<path d="M23.2632 67.5527H17.6749C16.7379 67.5527 15.9782 68.3124 15.9782 69.2495C15.9782 70.1866 16.7379 70.9463 17.6749 70.9463H23.2632C24.2005 70.9463 24.96 70.1866 24.96 69.2495C24.96 68.3123 24.2003 67.5527 23.2632 67.5527Z" fill="url(#paint12_linear_1_526)"/>
<path d="M12.4931 67.5527H9.19905C8.26182 67.5527 7.50229 68.3124 7.50229 69.2495C7.50229 70.1867 8.26199 70.9463 9.19905 70.9463H12.4931C13.4301 70.9463 14.1898 70.1867 14.1898 69.2495C14.1898 68.3124 13.4303 67.5527 12.4931 67.5527Z" fill="url(#paint13_linear_1_526)"/>
<path d="M12.4931 15.7954H9.19905C8.26182 15.7954 7.50229 16.5551 7.50229 17.4922C7.50229 18.4292 8.26199 19.1889 9.19905 19.1889H12.4931C13.4301 19.1889 14.1898 18.4292 14.1898 17.4922C14.1898 16.5549 13.4301 15.7954 12.4931 15.7954Z" fill="url(#paint14_linear_1_526)"/>
<path d="M21.6695 15.7954H18.3755C17.4383 15.7954 16.6788 16.5551 16.6788 17.4922C16.6788 18.4292 17.4385 19.1889 18.3755 19.1889H21.6695C22.6066 19.1889 23.3663 18.4292 23.3663 17.4922C23.3663 16.5549 22.6066 15.7954 21.6695 15.7954Z" fill="url(#paint15_linear_1_526)"/>
<path d="M30.846 15.7954H27.552C26.6148 15.7954 25.8552 16.5551 25.8552 17.4922C25.8552 18.4292 26.6149 19.1889 27.552 19.1889H30.846C31.783 19.1889 32.5428 18.4292 32.5428 17.4922C32.5428 16.5549 31.783 15.7954 30.846 15.7954Z" fill="url(#paint16_linear_1_526)"/>
<path d="M43.6687 67.9163C43.1042 67.9163 42.5397 67.701 42.1089 67.2702L26.8071 51.9684C25.9458 51.1069 25.9458 49.7103 26.8071 48.8488L42.1089 33.547C42.9704 32.6855 44.367 32.6855 45.2286 33.547C46.0899 34.4084 46.0899 35.8051 45.2286 36.6667L31.4864 50.4088L45.2286 64.1509C46.0899 65.0123 46.0899 66.409 45.2286 67.2706C44.7978 67.701 44.2333 67.9163 43.6687 67.9163Z" fill="white"/>
<path d="M64.9901 67.9161C64.4256 67.9161 63.861 67.7008 63.4303 67.2701C62.5689 66.4087 62.5689 65.012 63.4303 64.1504L77.1724 50.4083L63.4303 36.6662C62.5689 35.8048 62.5689 34.4081 63.4303 33.5465C64.2918 32.685 65.6884 32.685 66.5499 33.5465L81.8517 48.8483C82.713 49.7098 82.713 51.1064 81.8517 51.968L66.5499 67.2697C66.119 67.7008 65.5546 67.9161 64.9901 67.9161Z" fill="white"/>
<path d="M50.0371 70.0696C49.8625 70.0696 49.6854 70.0488 49.5084 70.0052C48.3253 69.7142 47.6023 68.5193 47.8933 67.3361L56.4816 32.4263C56.7726 31.2434 57.9673 30.5208 59.1507 30.8113C60.3338 31.1023 61.0568 32.2973 60.7658 33.4804L52.1775 68.3901C51.9299 69.3962 51.0285 70.0696 50.0371 70.0696Z" fill="white"/>
</g>
<defs>
<linearGradient id="paint0_linear_1_526" x1="41.7106" y1="12.1051" x2="42.7692" y2="22.6928" gradientUnits="userSpaceOnUse">
<stop stop-color="#F9F5F3"/>
<stop offset="1" stop-color="#EFE2DD"/>
</linearGradient>
<linearGradient id="paint1_linear_1_526" x1="80.647" y1="45.0001" x2="90.5294" y2="45.0001" gradientUnits="userSpaceOnUse">
<stop stop-color="#9E9797" stop-opacity="0"/>
<stop offset="0.3562" stop-color="#9B9494" stop-opacity="0.356"/>
<stop offset="0.6285" stop-color="#928B8B" stop-opacity="0.629"/>
<stop offset="0.872" stop-color="#827A7A" stop-opacity="0.872"/>
<stop offset="1" stop-color="#766E6E"/>
</linearGradient>
<linearGradient id="paint2_linear_1_526" x1="27.7258" y1="31.5833" x2="79.4476" y2="83.3051" gradientUnits="userSpaceOnUse">
<stop stop-color="#C9F6B0"/>
<stop offset="1" stop-color="#0BB494"/>
</linearGradient>
<linearGradient id="paint3_linear_1_526" x1="43.9527" y1="51.5703" x2="31.7762" y2="41.7762" gradientUnits="userSpaceOnUse">
<stop stop-color="#016A74" stop-opacity="0"/>
<stop offset="1" stop-color="#016A74"/>
</linearGradient>
<linearGradient id="paint4_linear_1_526" x1="63.6226" y1="57.0627" x2="46.6814" y2="49.4744" gradientUnits="userSpaceOnUse">
<stop stop-color="#016A74" stop-opacity="0"/>
<stop offset="1" stop-color="#016A74"/>
</linearGradient>
<linearGradient id="paint5_linear_1_526" x1="79.9412" y1="50.4082" x2="89.1176" y2="50.4082" gradientUnits="userSpaceOnUse">
<stop stop-color="#016A74" stop-opacity="0"/>
<stop offset="1" stop-color="#016A74"/>
</linearGradient>
<linearGradient id="paint6_linear_1_526" x1="79.9085" y1="65.3269" x2="71.7323" y2="57.1509" gradientUnits="userSpaceOnUse">
<stop stop-color="#016A74" stop-opacity="0"/>
<stop offset="1" stop-color="#016A74"/>
</linearGradient>
<linearGradient id="paint7_linear_1_526" x1="45" y1="73.8936" x2="45" y2="79.348" gradientUnits="userSpaceOnUse">
<stop stop-color="#016A74" stop-opacity="0"/>
<stop offset="1" stop-color="#016A74"/>
</linearGradient>
<linearGradient id="paint8_linear_1_526" x1="-27.7523" y1="19.8363" x2="60.3903" y2="84.9506" gradientUnits="userSpaceOnUse">
<stop stop-color="#016A74" stop-opacity="0"/>
<stop offset="1" stop-color="#016A74"/>
</linearGradient>
<linearGradient id="paint9_linear_1_526" x1="-26.3213" y1="17.8986" x2="61.8214" y2="83.0131" gradientUnits="userSpaceOnUse">
<stop stop-color="#016A74" stop-opacity="0"/>
<stop offset="1" stop-color="#016A74"/>
</linearGradient>
<linearGradient id="paint10_linear_1_526" x1="-19.3264" y1="8.43014" x2="68.8163" y2="73.5446" gradientUnits="userSpaceOnUse">
<stop stop-color="#016A74" stop-opacity="0"/>
<stop offset="1" stop-color="#016A74"/>
</linearGradient>
<linearGradient id="paint11_linear_1_526" x1="-22.9239" y1="13.2996" x2="65.2188" y2="78.4141" gradientUnits="userSpaceOnUse">
<stop stop-color="#016A74" stop-opacity="0"/>
<stop offset="1" stop-color="#016A74"/>
</linearGradient>
<linearGradient id="paint12_linear_1_526" x1="-34.3431" y1="28.7577" x2="53.7995" y2="93.8722" gradientUnits="userSpaceOnUse">
<stop stop-color="#016A74" stop-opacity="0"/>
<stop offset="1" stop-color="#016A74"/>
</linearGradient>
<linearGradient id="paint13_linear_1_526" x1="-37.7405" y1="33.3567" x2="50.402" y2="98.4711" gradientUnits="userSpaceOnUse">
<stop stop-color="#016A74" stop-opacity="0"/>
<stop offset="1" stop-color="#016A74"/>
</linearGradient>
<linearGradient id="paint14_linear_1_526" x1="9.49235" y1="14.7844" x2="11.7865" y2="19.3726" gradientUnits="userSpaceOnUse">
<stop stop-color="#D9B1EE"/>
<stop offset="0.1228" stop-color="#DBA3E3"/>
<stop offset="0.3507" stop-color="#E381C8"/>
<stop offset="0.6587" stop-color="#EF499B"/>
<stop offset="1" stop-color="#FE0364"/>
</linearGradient>
<linearGradient id="paint15_linear_1_526" x1="18.6688" y1="14.7844" x2="20.9629" y2="19.3726" gradientUnits="userSpaceOnUse">
<stop stop-color="#FEF48B"/>
<stop offset="1" stop-color="#FFBF51"/>
</linearGradient>
<linearGradient id="paint16_linear_1_526" x1="27.8453" y1="14.7844" x2="30.1394" y2="19.3726" gradientUnits="userSpaceOnUse">
<stop stop-color="#C9F6B0"/>
<stop offset="1" stop-color="#0BB494"/>
</linearGradient>
<clipPath id="clip0_1_526">
<rect width="90" height="90" fill="white"/>
</clipPath>
</defs>
</svg>
