<svg width="36" height="37" viewBox="0 0 36 37" fill="none" xmlns="http://www.w3.org/2000/svg">
<g clip-path="url(#clip0_1_637)">
<g clip-path="url(#clip1_1_637)">
<path fill-rule="evenodd" clip-rule="evenodd" d="M18 3.5C11.3726 3.5 6 9.50388 6 16.25C6 22.9433 9.82999 30.2186 15.8056 33.0117C17.1986 33.6628 18.8014 33.6628 20.1944 33.0117C26.17 30.2186 30 22.9433 30 16.25C30 9.50388 24.6274 3.5 18 3.5ZM18 18.5C19.6569 18.5 21 17.1569 21 15.5C21 13.8431 19.6569 12.5 18 12.5C16.3431 12.5 15 13.8431 15 15.5C15 17.1569 16.3431 18.5 18 18.5Z" fill="#FF8F3F"/>
</g>
</g>
<defs>
<clipPath id="clip0_1_637">
<rect width="36" height="37" fill="white"/>
</clipPath>
<clipPath id="clip1_1_637">
<rect width="36" height="37" fill="white"/>
</clipPath>
</defs>
</svg>
