<svg width="182" height="58" viewBox="0 0 182 58" fill="none" xmlns="http://www.w3.org/2000/svg">
<path d="M0 40.0178V24.2759H3.67306L3.93097 26.4812C4.33342 25.7178 4.90026 25.1184 5.63714 24.6774C6.37402 24.2392 7.16191 24.0187 8.00366 24.0187C9.05513 24.0187 9.97339 24.2674 10.7585 24.7622C11.5435 25.2598 12.1359 25.9355 12.5383 26.795C12.9408 25.9751 13.5189 25.3079 14.2728 24.7905C15.0295 24.2759 15.8741 24.0187 16.8122 24.0187C18.6686 24.0187 20.131 24.6491 21.2023 25.9072C22.2736 27.1653 22.8093 29.1218 22.8093 31.7737V40.0178H18.7649V31.7737C18.7649 30.4562 18.5127 29.495 18.0054 28.8843C17.4981 28.2736 16.8632 27.9683 16.098 27.9683C15.3328 27.9683 14.7149 28.2736 14.1906 28.8843C13.6635 29.495 13.4027 30.459 13.4027 31.7737V40.0178H9.38672V31.7737C9.38672 30.4562 9.13732 29.495 8.64134 28.8843C8.14253 28.2736 7.50201 27.9683 6.71978 27.9683C5.93756 27.9683 5.31971 28.3075 4.8124 28.9832C4.30509 29.6618 4.05284 30.6569 4.05284 31.9744V40.0178H0.00850212H0Z" fill="white"/>
<path d="M26.9729 26.4261C28.5401 24.8428 30.4447 24.0512 32.6837 24.0512C34.9227 24.0512 36.8386 24.8485 38.437 26.4402C40.0326 28.0348 40.8319 29.9375 40.8319 32.1512C40.8319 34.3649 40.0383 36.2931 38.4512 37.8763C36.8442 39.4793 34.9227 40.2794 32.6837 40.2794C30.4447 40.2794 28.5373 39.4821 26.9587 37.8904C25.3801 36.2987 24.5922 34.3847 24.5922 32.1512C24.5922 29.9177 25.3857 28.0121 26.9729 26.4261ZM28.6677 32.1484C28.6677 33.2736 29.0588 34.2292 29.8439 35.0095C30.6289 35.7926 31.5755 36.1828 32.6837 36.1828C33.7918 36.1828 34.7696 35.7926 35.5518 35.0095C36.3369 34.2264 36.728 33.2736 36.728 32.1484C36.728 31.0231 36.3369 30.0986 35.5518 29.3155C34.7668 28.5324 33.8117 28.1422 32.6837 28.1422C31.5557 28.1422 30.6261 28.5324 29.8439 29.3155C29.0588 30.0986 28.6677 31.0429 28.6677 32.1484Z" fill="white"/>
<path d="M43.8706 24.2763L44.4431 19.1251H47.7704V24.2763H51.3868V27.8528H47.7704V33.4054C47.7704 35.4269 48.6405 36.439 50.3806 36.439C50.7831 36.439 51.1459 36.3711 51.4718 36.2383L52.4751 39.8147C51.7467 40.1398 50.8483 40.301 49.777 40.301C47.9971 40.301 46.5432 39.7582 45.4152 38.6697C44.2872 37.5812 43.7232 35.8368 43.7232 33.4308V27.8499H41.6571V24.2735H43.8677L43.8706 24.2763Z" fill="white"/>
<path d="M54.4005 17.695H58.4449V26.4538C59.4396 24.8309 60.8652 24.0223 62.7188 24.0223C64.5723 24.0223 66.1481 24.6811 67.2676 25.9957C68.3871 27.3132 68.9454 29.3064 68.9454 31.9781V40.0215H64.9294V31.9781C64.9294 30.6606 64.6176 29.6655 63.997 28.9869C63.3763 28.3084 62.6054 27.972 61.6871 27.972C60.7689 27.972 59.9753 28.3112 59.3631 28.9869C58.7509 29.6655 58.4449 30.6606 58.4449 31.9781V40.0215H54.4005V17.695Z" fill="white"/>
<path d="M71.4995 40.0178V24.2759H75.1726L75.4305 26.4812C75.8329 25.7178 76.3998 25.1184 77.1366 24.6774C77.8735 24.2392 78.6614 24.0187 79.5032 24.0187C80.5546 24.0187 81.4729 24.2674 82.258 24.7622C83.043 25.2598 83.6354 25.9355 84.0378 26.795C84.4403 25.9751 85.0184 25.3079 85.7723 24.7905C86.529 24.2759 87.3736 24.0187 88.3117 24.0187C90.1681 24.0187 91.6305 24.6491 92.7018 25.9072C93.7731 27.1653 94.3088 29.1218 94.3088 31.7737V40.0178H90.2644V31.7737C90.2644 30.4562 90.0122 29.495 89.5049 28.8843C88.9976 28.2736 88.3627 27.9683 87.5975 27.9683C86.8323 27.9683 86.2144 28.2736 85.6901 28.8843C85.163 29.495 84.9022 30.459 84.9022 31.7737V40.0178H80.8862V31.7737C80.8862 30.4562 80.6368 29.495 80.1409 28.8843C79.642 28.2736 79.0015 27.9683 78.2193 27.9683C77.4371 27.9683 76.8192 28.3075 76.3119 28.9832C75.8046 29.6618 75.5524 30.6569 75.5524 31.9744V40.0178H71.508H71.4995Z" fill="white"/>
<path d="M96.8618 24.2776H100.535L100.821 26.5394C101.759 24.9561 103.318 24.1645 105.497 24.1645C106.053 24.1645 106.529 24.2041 106.932 24.2804L106.098 28.1452C105.869 28.1085 105.707 28.0887 105.611 28.0887C104.273 28.0887 103.154 28.493 102.255 29.3044C101.357 30.1158 100.906 31.4841 100.906 33.4123V40.0252H96.8618V24.2832V24.2776Z" fill="white"/>
<path d="M121.658 57.6747C113.39 47.46 112.027 32.227 117.863 20.4601C124.356 7.34749 139.099 -0.630908 153.672 0.0391415C154.259 0.0758952 155.815 0.245528 156.418 0.299245C158.451 0.581966 160.443 1.04563 162.427 1.66196C167.282 3.41483 171.652 5.99608 175.192 9.92873C182.413 18.1022 184.315 30.8218 178.834 40.4428C175.356 46.2358 169.739 50.9007 163.036 52.2917C154.803 54.1152 146.173 49.685 142.041 42.6763C140.369 39.8491 139.36 36.5922 139.428 33.2956C139.516 28.0257 142.174 22.835 146.686 19.9625C153.08 15.8376 162.764 17.7092 165.669 25.0628C166.449 27.1125 166.599 29.1821 166.196 31.1046C166.145 31.817 165.17 31.8792 165.074 31.1696C164.442 23.6379 156.413 20.1576 150.455 24.7066C147.942 26.7252 146.669 30.2479 147.12 33.4059C147.831 38.2602 152.292 42.2155 157.076 42.9195C162.098 43.6065 166.624 39.9707 169.116 35.891C171.683 31.6587 171.445 26.0184 169.478 21.5373C166.607 14.8848 159.23 11.1671 152.193 10.8419C144.059 10.4235 135.811 13.4995 129.729 18.8656C124.565 23.4541 121.377 29.9878 120.306 36.7759C119.169 43.6093 120.099 50.765 122.703 57.245C122.941 57.9009 122.049 58.3193 121.666 57.6775L121.658 57.6747Z" fill="url(#paint0_linear_1_57)"/>
<defs>
<linearGradient id="paint0_linear_1_57" x1="98.4118" y1="61.6385" x2="225.983" y2="-21.6207" gradientUnits="userSpaceOnUse">
<stop stop-color="#FF584E"/>
<stop offset="1" stop-color="#FFBF33"/>
</linearGradient>
</defs>
</svg>
