<svg width="36" height="37" viewBox="0 0 36 37" fill="none" xmlns="http://www.w3.org/2000/svg">
<g clip-path="url(#clip0_1_650)">
<path fill-rule="evenodd" clip-rule="evenodd" d="M4.75736 8.25736C3 10.0147 3 12.8431 3 18.5C3 24.1569 3 26.9853 4.75736 28.7426C6.51472 30.5 9.34315 30.5 15 30.5H21C26.6569 30.5 29.4853 30.5 31.2426 28.7426C33 26.9853 33 24.1569 33 18.5C33 12.8431 33 10.0147 31.2426 8.25736C29.4853 6.5 26.6569 6.5 21 6.5H15C9.34315 6.5 6.51472 6.5 4.75736 8.25736ZM27.8643 11.7798C28.262 12.2571 28.1975 12.9665 27.7202 13.3642L24.4255 16.1098C23.0959 17.2178 22.0183 18.1159 21.0672 18.7276C20.0765 19.3648 19.1116 19.7673 18 19.7673C16.8884 19.7673 15.9235 19.3648 14.9328 18.7276C13.9817 18.1159 12.9041 17.2178 11.5745 16.1099L8.27979 13.3642C7.80248 12.9665 7.73799 12.2571 8.13575 11.7798C8.53351 11.3025 9.2429 11.238 9.72021 11.6358L12.9586 14.3344C14.358 15.5006 15.3296 16.3076 16.1499 16.8352C16.9439 17.3459 17.4824 17.5173 18 17.5173C18.5176 17.5173 19.0561 17.3459 19.8501 16.8352C20.6704 16.3076 21.642 15.5006 23.0415 14.3344L26.2798 11.6358C26.7571 11.238 27.4665 11.3025 27.8643 11.7798Z" fill="#FF8F3F"/>
</g>
<defs>
<clipPath id="clip0_1_650">
<rect width="36" height="37" fill="white"/>
</clipPath>
</defs>
</svg>
