<svg width="78" height="78" viewBox="0 0 78 78" fill="none" xmlns="http://www.w3.org/2000/svg">
<g filter="url(#filter0_iii_1_66)">
<circle cx="38.9512" cy="38.9512" r="38.9512" fill="url(#paint0_linear_1_66)"/>
</g>
<path d="M32.7902 46.1356C31.3595 44.7406 28.6304 45.0282 27.3753 46.283C25.9756 47.6829 26.1289 50.9979 26.1895 51.6205C26.2464 52.2089 26.7237 52.6719 27.3222 52.7194C27.4829 52.7316 31.0664 53.0776 32.7086 51.4779C33.908 50.1999 34.2147 47.5988 32.7902 46.1356Z" fill="#785F23"/>
<path d="M47.2294 43.9298C55.0975 36.0546 52.6516 27.552 52.5441 27.1938C52.4241 26.8003 52.1137 26.4921 51.7156 26.3751C51.3557 26.2679 42.8038 23.8495 34.9579 31.7016L29.2191 37.4447C28.4401 38.2256 28.1062 39.3367 28.33 40.4174C28.5464 41.4676 29.2636 42.3374 30.2553 42.7419C31.6823 43.3255 32.8607 44.0833 33.8364 45.0519C34.786 46.0021 35.5094 47.2339 36.1475 48.6459C37.4347 51.4919 40.6806 50.7743 41.4906 49.6741L47.2294 43.9298ZM39.6555 39.299L39.6197 39.2636C37.5967 37.2388 38.7504 35.4796 39.6197 34.6097C40.3752 33.8543 42.2102 32.5264 44.3247 34.6097C46.3638 36.6187 45.194 38.3938 44.3247 39.2636C43.5704 40.019 41.7898 41.4018 39.6555 39.299Z" fill="#785F23"/>
<path d="M27.4588 35.7366L33.1976 29.9935C33.7541 29.4367 34.3155 28.925 34.8781 28.456C33.1692 27.8712 31.3465 28.188 30.2658 28.6899C28.1785 29.6585 26.6365 32.1548 26.4671 32.4362C26.3744 32.591 26.3175 32.7627 26.3002 32.9418C26.2742 33.2038 26.1407 34.924 26.7429 36.6114C26.9494 36.3007 27.188 36.0083 27.4576 35.7379L27.4588 35.7366Z" fill="#785F23"/>
<path d="M50.2513 48.6185C50.7484 47.5451 51.0452 45.7347 50.464 44.0352C50.0139 44.5712 49.5242 45.1073 48.9938 45.6385L43.2549 51.3828C42.9668 51.6716 42.6515 51.925 42.3164 52.143C44.0043 52.74 45.7181 52.6133 45.9815 52.5889C46.1682 52.5719 46.35 52.5134 46.5108 52.4159C46.7915 52.2478 49.2856 50.7042 50.2513 48.6185Z" fill="#785F23"/>
<defs>
<filter id="filter0_iii_1_66" x="-5" y="-6" width="83.9023" height="88.9023" filterUnits="userSpaceOnUse" color-interpolation-filters="sRGB">
<feFlood flood-opacity="0" result="BackgroundImageFix"/>
<feBlend mode="normal" in="SourceGraphic" in2="BackgroundImageFix" result="shape"/>
<feColorMatrix in="SourceAlpha" type="matrix" values="0 0 0 0 0 0 0 0 0 0 0 0 0 0 0 0 0 0 127 0" result="hardAlpha"/>
<feMorphology radius="1" operator="dilate" in="SourceAlpha" result="effect1_innerShadow_1_66"/>
<feOffset dx="1" dy="5"/>
<feGaussianBlur stdDeviation="3.55"/>
<feComposite in2="hardAlpha" operator="arithmetic" k2="-1" k3="1"/>
<feColorMatrix type="matrix" values="0 0 0 0 1 0 0 0 0 1 0 0 0 0 1 0 0 0 0.48 0"/>
<feBlend mode="normal" in2="shape" result="effect1_innerShadow_1_66"/>
<feColorMatrix in="SourceAlpha" type="matrix" values="0 0 0 0 0 0 0 0 0 0 0 0 0 0 0 0 0 0 127 0" result="hardAlpha"/>
<feOffset dy="-6"/>
<feGaussianBlur stdDeviation="3.1"/>
<feComposite in2="hardAlpha" operator="arithmetic" k2="-1" k3="1"/>
<feColorMatrix type="matrix" values="0 0 0 0 0 0 0 0 0 0 0 0 0 0 0 0 0 0 0.09 0"/>
<feBlend mode="normal" in2="effect1_innerShadow_1_66" result="effect2_innerShadow_1_66"/>
<feColorMatrix in="SourceAlpha" type="matrix" values="0 0 0 0 0 0 0 0 0 0 0 0 0 0 0 0 0 0 127 0" result="hardAlpha"/>
<feOffset dx="-5"/>
<feGaussianBlur stdDeviation="3.9"/>
<feComposite in2="hardAlpha" operator="arithmetic" k2="-1" k3="1"/>
<feColorMatrix type="matrix" values="0 0 0 0 0 0 0 0 0 0 0 0 0 0 0 0 0 0 0.05 0"/>
<feBlend mode="normal" in2="effect2_innerShadow_1_66" result="effect3_innerShadow_1_66"/>
</filter>
<linearGradient id="paint0_linear_1_66" x1="38.9512" y1="0" x2="38.9512" y2="77.9023" gradientUnits="userSpaceOnUse">
<stop stop-color="#FAD580"/>
<stop offset="1" stop-color="#F2B72B"/>
</linearGradient>
</defs>
</svg>
