<svg width="74" height="74" viewBox="0 0 74 74" fill="none" xmlns="http://www.w3.org/2000/svg">
<g filter="url(#filter0_d_2_756)">
<rect x="7" y="3" width="60" height="60" rx="30" fill="white" fill-opacity="0.01" shape-rendering="crispEdges"/>
<g clip-path="url(#clip0_2_756)">
<g clip-path="url(#clip1_2_756)">
<rect x="7" y="3" width="60" height="60" rx="30" fill="#333333"/>
<path d="M67 33C67 54.25 58.25 63 37 63C15.75 63 7 54.25 7 33C7 11.75 15.75 3 37 3C58.25 3 67 11.75 67 33Z" fill="#333333"/>
<path d="M37 3.5C47.5721 3.5 54.9096 5.67914 59.6152 10.3848C64.3209 15.0904 66.5 22.4279 66.5 33C66.5 43.5721 64.3209 50.9096 59.6152 55.6152C54.9096 60.3209 47.5721 62.5 37 62.5C26.4279 62.5 19.0904 60.3209 14.3848 55.6152C9.67914 50.9096 7.5 43.5721 7.5 33C7.5 22.4279 9.67914 15.0904 14.3848 10.3848C19.0904 5.67914 26.4279 3.5 37 3.5Z" fill="url(#paint0_linear_2_756)" stroke="#2B2B2B"/>
<path fill-rule="evenodd" clip-rule="evenodd" d="M47.6119 22.3441C44.8052 19.5342 41.0726 17.986 37.0961 17.9844C28.9022 17.9844 22.2335 24.6529 22.2302 32.8491C22.2291 35.4691 22.9135 38.0267 24.2145 40.2811L22.1055 47.9844L29.9861 45.9171C32.1576 47.1016 34.6022 47.7258 37.0901 47.7266H37.0963C45.2894 47.7266 51.9588 41.0575 51.9619 32.861C51.9636 28.8887 50.4187 25.1539 47.6119 22.3441ZM37.0961 45.216H37.091C34.874 45.2151 32.6996 44.6193 30.8022 43.4937L30.3513 43.2258L25.6747 44.4526L26.923 39.8931L26.6291 39.4257C25.3922 37.4584 24.7391 35.1846 24.7402 32.85C24.7427 26.0375 30.2857 20.4951 37.1011 20.4951C40.4014 20.4962 43.5037 21.7831 45.8365 24.1186C48.1693 26.4541 49.4532 29.5585 49.4521 32.86C49.4492 39.673 43.9066 45.216 37.0961 45.216ZM43.8736 35.962C43.5023 35.776 41.676 34.8777 41.3354 34.7535C40.9952 34.6296 40.7473 34.5679 40.4999 34.9396C40.2521 35.3113 39.5404 36.1481 39.3236 36.3958C39.1068 36.6437 38.8904 36.6749 38.5189 36.4888C38.1473 36.303 36.9506 35.9106 35.5317 34.6451C34.4276 33.6602 33.6821 32.4438 33.4653 32.0721C33.2489 31.7001 33.4635 31.5184 33.6283 31.3141C34.0304 30.8148 34.433 30.2913 34.5568 30.0435C34.6808 29.7956 34.6187 29.5786 34.5257 29.3928C34.433 29.2069 33.6902 27.3786 33.3807 26.6346C33.079 25.9106 32.773 26.0084 32.5449 25.9971C32.3284 25.9863 32.0807 25.9841 31.8329 25.9841C31.5854 25.9841 31.1829 26.0769 30.8423 26.449C30.502 26.8209 29.5425 27.7194 29.5425 29.5477C29.5425 31.376 30.8735 33.1422 31.0591 33.3901C31.2448 33.6381 33.6785 37.3899 37.4045 38.9987C38.2907 39.3817 38.9825 39.61 39.5221 39.7812C40.412 40.064 41.2215 40.024 41.8616 39.9285C42.5754 39.8217 44.0591 39.0298 44.3689 38.1622C44.6783 37.2945 44.6783 36.5509 44.5853 36.3958C44.4927 36.2409 44.2449 36.1481 43.8736 35.962Z" fill="white"/>
</g>
</g>
</g>
<defs>
<filter id="filter0_d_2_756" x="0" y="0" width="74" height="74" filterUnits="userSpaceOnUse" color-interpolation-filters="sRGB">
<feFlood flood-opacity="0" result="BackgroundImageFix"/>
<feColorMatrix in="SourceAlpha" type="matrix" values="0 0 0 0 0 0 0 0 0 0 0 0 0 0 0 0 0 0 127 0" result="hardAlpha"/>
<feOffset dy="4"/>
<feGaussianBlur stdDeviation="3.5"/>
<feComposite in2="hardAlpha" operator="out"/>
<feColorMatrix type="matrix" values="0 0 0 0 0 0 0 0 0 0 0 0 0 0 0 0 0 0 0.1 0"/>
<feBlend mode="normal" in2="BackgroundImageFix" result="effect1_dropShadow_2_756"/>
<feBlend mode="normal" in="SourceGraphic" in2="effect1_dropShadow_2_756" result="shape"/>
</filter>
<linearGradient id="paint0_linear_2_756" x1="6.90566" y1="33" x2="60.3327" y2="16.5166" gradientUnits="userSpaceOnUse">
<stop stop-color="#FE963D"/>
<stop offset="1" stop-color="#FF694A"/>
</linearGradient>
<clipPath id="clip0_2_756">
<rect width="60" height="60" fill="white" transform="translate(7 3)"/>
</clipPath>
<clipPath id="clip1_2_756">
<rect width="60" height="60" fill="white" transform="translate(7 3)"/>
</clipPath>
</defs>
</svg>
